<svg id="Layer_2" data-name="Layer 2" xmlns="http://www.w3.org/2000/svg" viewBox="0 0 512 512"><defs><style>.cls-1{fill:#fff;}</style></defs><path class="cls-1" d="M496.24,46.34H456.72V41.13a9,9,0,1,0-18,0v5.21H399.2a9,9,0,0,0,0,18h39.52v58l-52.88,11.08C378.1,116.19,359.47,104,337.76,104H180.11c-22.18,0-41.15,12.74-48.56,30.6L73.28,122.38v-58H112.8a9,9,0,0,0,0-18H73.28V41.13a9,9,0,1,0-18,0v5.21H15.76a9,9,0,0,0,0,18H55.28v65.25a9,9,0,0,0,.18,1.89,1.05,1.05,0,0,0,0,.19c.05.22.1.44.17.65s.07.22.11.33.11.33.18.49.11.24.17.36.13.28.2.42.13.22.2.33.16.28.25.42l.2.27c.1.15.21.29.32.43l.18.21a5.62,5.62,0,0,0,.41.44l.14.14c.16.16.33.31.5.45l.13.11.56.41.16.1a5,5,0,0,0,.58.35l.26.13a5,5,0,0,0,.52.25l.45.17.37.14c.22.07.44.12.67.17l.19.05h0l65.72,13.78V165.7c0,10.91,7.11,20.31,17.26,24.45l5.16,15.35-5.88,3A102,102,0,0,0,88.4,300v70.67a9,9,0,0,0,9,9h18.5a9,9,0,1,0,0-18h-9.5V300a84.1,84.1,0,0,1,46.44-75.46l3.75-1.89c5.33,11.68,17.65,19.33,31.68,19.33H329.6c13,0,24.63-6.63,30.47-17a84.08,84.08,0,0,1,45.53,75v61.67h-9.5a9,9,0,0,0,0,18h18.5a9,9,0,0,0,9-9V300a102,102,0,0,0-56.34-91.53l-.86-.44,6-17.88c10.15-4.14,17.26-13.54,17.26-24.45V151.26c0-.07,0-.14,0-.21l59.86-12.55h.05l.19-.05c.23-.05.45-.1.67-.17l.36-.13c.16-.06.31-.11.46-.18s.34-.16.51-.24l.27-.14a5.21,5.21,0,0,0,.56-.34l.18-.11c.19-.12.36-.26.54-.4l.15-.12c.17-.14.32-.28.48-.43l.17-.16.38-.42c.07-.08.14-.15.2-.23s.21-.27.3-.4a3.46,3.46,0,0,0,.22-.31,3,3,0,0,0,.23-.38c.08-.12.15-.24.22-.37s.12-.25.18-.37a3.75,3.75,0,0,0,.19-.41c.06-.14.11-.29.16-.44s.1-.25.14-.37l.15-.59.06-.26a7.73,7.73,0,0,0,.13-.84v0a8.27,8.27,0,0,0,.05-1V64.34h39.52a9,9,0,0,0,0-18ZM329.6,224H188.27c-7.33,0-13.83-4.12-15.81-10l-7.25-21.53H285.73a9,9,0,0,0,0-18H157.06c-6,0-10.86-3.92-10.86-8.72V151.26c0-16.14,15.22-29.27,33.91-29.27H337.76c18.7,0,33.91,13.13,33.91,29.27V165.7c0,4.8-4.88,8.72-10.87,8.72h-33a9,9,0,0,0,0,18h24.9L345.41,214C343.43,219.86,336.93,224,329.6,224Z"/><path class="cls-1" d="M190.67,377.32h-3.42a9,9,0,1,0,0,18h3.42a9,9,0,1,0,0-18Z"/><path class="cls-1" d="M359.44,354.15a22.21,22.21,0,0,0-21.7-.26,4.27,4.27,0,0,0-.51.3l-29.43,19a33.15,33.15,0,0,0-21.16-27.67,39.12,39.12,0,1,0-62.59-46.87,35.82,35.82,0,0,0-54.73,45.62A33.14,33.14,0,0,0,144,376.43v70.35A33.14,33.14,0,0,0,177,479.87h97.84A33.12,33.12,0,0,0,307.8,450l29.43,19c.16.11.33.21.51.31a22.23,22.23,0,0,0,21.7-.26,16.68,16.68,0,0,0,8.61-14.3V368.44A16.67,16.67,0,0,0,359.44,354.15ZM256.1,299.92A21.15,21.15,0,1,1,235,321.06,21.17,21.17,0,0,1,256.1,299.92Zm-57,6.6a17.85,17.85,0,1,1-17.85,17.84A17.86,17.86,0,0,1,199.12,306.52ZM290,446.78a15.1,15.1,0,0,1-15.08,15.09H177A15.11,15.11,0,0,1,162,446.78V376.43A15.11,15.11,0,0,1,177,361.34h97.84A15.1,15.1,0,0,1,290,376.43v70.35Zm60.09,6.91a4.45,4.45,0,0,1-3.39,0l-38.7-25V394.5l38.7-25a4.4,4.4,0,0,1,3.39,0Z"/></svg>