<svg id="Layer_2" data-name="Layer 2" xmlns="http://www.w3.org/2000/svg" viewBox="0 0 512 512"><defs><style>.cls-1{fill:#fff;}</style></defs><path class="cls-1" d="M496.24,46.34H456.72V41.13a9,9,0,1,0-18,0v5.21H399.2a9,9,0,0,0,0,18h39.52v58l-52.88,11.08C378.1,116.19,359.47,104,337.76,104H180.11c-22.18,0-41.15,12.74-48.56,30.6L73.28,122.38v-58H112.8a9,9,0,0,0,0-18H73.28V41.13a9,9,0,1,0-18,0v5.21H15.76a9,9,0,0,0,0,18H55.28v65.25a9,9,0,0,0,.18,1.89,1.05,1.05,0,0,0,0,.19c.05.22.1.44.17.65s.07.22.11.33.11.33.18.49.11.24.17.36.13.28.2.42.13.22.2.33.16.28.25.42l.2.27c.1.15.21.29.32.43l.18.21a5.62,5.62,0,0,0,.41.44l.14.14c.16.16.33.31.5.45l.13.11.56.41.16.1a5,5,0,0,0,.58.35l.26.13a5,5,0,0,0,.52.25l.45.17.37.14c.22.07.44.12.67.17l.19.05h0l65.72,13.78V165.7c0,10.91,7.11,20.31,17.26,24.45l5.16,15.35-5.88,3A102,102,0,0,0,88.4,300v70.67a9,9,0,0,0,9,9h18.5a9,9,0,1,0,0-18h-9.5V300a84.1,84.1,0,0,1,46.44-75.46l3.75-1.89c5.33,11.68,17.65,19.33,31.68,19.33H329.6c13,0,24.63-6.63,30.47-17a84.08,84.08,0,0,1,45.53,75v61.67h-9.5a9,9,0,0,0,0,18h18.5a9,9,0,0,0,9-9V300a102,102,0,0,0-56.34-91.53l-.86-.44,6-17.88c10.15-4.14,17.26-13.54,17.26-24.45V151.26c0-.07,0-.14,0-.21l59.86-12.55h.05l.19-.05c.23-.05.45-.1.67-.17l.37-.14.45-.17a5,5,0,0,0,.52-.25l.26-.13a5,5,0,0,0,.58-.35l.16-.1.56-.41.13-.11c.17-.14.34-.29.5-.45l.14-.14a5.62,5.62,0,0,0,.41-.44l.18-.21c.11-.14.22-.28.32-.43l.2-.27c.09-.14.17-.28.25-.42s.14-.22.2-.33l.2-.42c.06-.12.12-.24.17-.36s.12-.33.18-.49.08-.22.11-.33.12-.43.17-.65a1.05,1.05,0,0,0,.05-.19,9,9,0,0,0,.18-1.89V64.34h39.52a9,9,0,0,0,0-18ZM329.6,224H188.27c-7.33,0-13.83-4.12-15.81-10l-7.25-21.53H285.73a9,9,0,0,0,0-18H157.06c-6,0-10.86-3.92-10.86-8.72V151.26c0-16.14,15.22-29.27,33.91-29.27H337.76c18.7,0,33.91,13.13,33.91,29.27V165.7c0,4.8-4.88,8.72-10.87,8.72h-33a9,9,0,0,0,0,18h24.9L345.41,214C343.43,219.86,336.93,224,329.6,224Z"/><path class="cls-1" d="M190.4,352.73H187a9,9,0,0,0,0,18h3.42a9,9,0,0,0,0-18Z"/><path class="cls-1" d="M342.78,319.82H312l-13.55-20.09c-.16-.23-.32-.45-.49-.66a23.5,23.5,0,0,0-18.28-8.66h-47.3a23.5,23.5,0,0,0-18.28,8.66c-.17.21-.33.43-.49.66L200,319.82H169.22A25.3,25.3,0,0,0,144,345.08V454.6a25.28,25.28,0,0,0,25.27,25.27H342.78a25.28,25.28,0,0,0,25.27-25.27V345.08A25.3,25.3,0,0,0,342.78,319.82Zm7.27,134.78a7.28,7.28,0,0,1-7.27,7.27H169.22A7.26,7.26,0,0,1,162,454.6V345.08a7.27,7.27,0,0,1,7.27-7.26h35.59a9,9,0,0,0,7.46-4l15.95-23.63a5.55,5.55,0,0,1,4.13-1.81h47.3a5.55,5.55,0,0,1,4.13,1.81l16,23.63a9,9,0,0,0,7.46,4h35.59a7.27,7.27,0,0,1,7.27,7.26Z"/><path class="cls-1" d="M256,354.38a45.46,45.46,0,1,0,45.46,45.46A45.51,45.51,0,0,0,256,354.38Zm0,72.92a27.46,27.46,0,1,1,27.46-27.46A27.49,27.49,0,0,1,256,427.3Z"/></svg>