<svg id="Layer_2" data-name="Layer 2" xmlns="http://www.w3.org/2000/svg" viewBox="0 0 512 512"><defs><style>.cls-1{fill:#fff;}</style></defs><path class="cls-1" d="M471.62,338.2a9,9,0,0,0-10.92-.54,172.87,172.87,0,0,1-98.53,30.67c-96.81,0-175.58-79.91-175.58-178.13,0-56.09,25.27-107.77,69.33-141.81a9,9,0,0,0-6.11-16.1A229.8,229.8,0,0,0,99,102.58,220.68,220.68,0,0,0,37.19,255.73c0,59.87,23.82,116.15,67.06,158.46s100.6,65.54,161.66,65.54A231.19,231.19,0,0,0,391,443.28a225.69,225.69,0,0,0,83-94.4A9,9,0,0,0,471.62,338.2ZM265.91,461.73c-116.19,0-210.72-92.41-210.72-206,0-98.33,71.67-182.11,167.68-201.67A196.65,196.65,0,0,0,168.59,190.2c0,108.15,86.84,196.13,193.58,196.13A190.81,190.81,0,0,0,442,369C403.36,426.15,337.27,461.73,265.91,461.73Z"/><path class="cls-1" d="M293.08,106.35c22.82,12.8,32.57,22.55,45.36,45.37a9,9,0,0,0,15.7,0c12.8-22.82,22.55-32.57,45.37-45.37a9,9,0,0,0,0-15.7c-22.82-12.79-32.57-22.54-45.37-45.36a9,9,0,0,0-15.7,0c-12.79,22.82-22.54,32.57-45.36,45.36a9,9,0,0,0,0,15.7ZM346.29,67A105.28,105.28,0,0,0,377.76,98.5,105.51,105.51,0,0,0,346.29,130,105.4,105.4,0,0,0,314.82,98.5,105.17,105.17,0,0,0,346.29,67Z"/><path class="cls-1" d="M376.09,216.32a9,9,0,0,0-15.7,0c-10.14,18.09-17.87,25.82-36,36a9,9,0,0,0,0,15.7c18.09,10.15,25.82,17.87,36,36a9,9,0,0,0,15.7,0c10.14-18.08,17.87-25.81,36-36a9,9,0,0,0,0-15.7C394,242.14,386.23,234.41,376.09,216.32Zm-7.85,66.13a85,85,0,0,0-22.31-22.32,84.84,84.84,0,0,0,22.31-22.31,84.73,84.73,0,0,0,22.32,22.31A84.91,84.91,0,0,0,368.24,282.45Z"/></svg>