<svg id="Layer_2" data-name="Layer 2" xmlns="http://www.w3.org/2000/svg" viewBox="0 0 512 512"><defs><style>.cls-1{fill:#fff;}</style></defs><path class="cls-1" d="M135,265.64h23.55a9,9,0,0,0,0-18H135a9,9,0,0,0,0,18Z"/><path class="cls-1" d="M158.55,368.26a9,9,0,0,0,0-18H135.48a9,9,0,1,0,0,18Z"/><path class="cls-1" d="M158.55,299H135.48a9,9,0,1,0,0,18h23.07a9,9,0,0,0,0-18Z"/><path class="cls-1" d="M201.06,265.64h23.56a9,9,0,0,0,0-18H201.06a9,9,0,0,0,0,18Z"/><path class="cls-1" d="M224.62,350.26H201.54a9,9,0,1,0,0,18h23.08a9,9,0,0,0,0-18Z"/><path class="cls-1" d="M224.62,299H201.54a9,9,0,0,0,0,18h23.08a9,9,0,0,0,0-18Z"/><path class="cls-1" d="M350.28,190.92A79.78,79.78,0,0,0,424.85,139a9,9,0,0,0-13-10.87,45.7,45.7,0,0,1-23.18,6.34c-25.85,0-46.89-21.73-46.89-48.44a48.81,48.81,0,0,1,17.78-37.95,9,9,0,0,0-5.26-15.95c-1.35-.07-2.69-.1-4-.1a79.46,79.46,0,1,0,0,158.92ZM332.53,52.61A67.4,67.4,0,0,0,323.76,86c0,36.64,29.11,66.44,64.89,66.44a64.08,64.08,0,0,0,7.84-.48,61.46,61.46,0,1,1-64-99.35Z"/><path class="cls-1" d="M188.61,109a9,9,0,0,0,17.68,0,9,9,0,0,0,0-17.68,9,9,0,0,0-17.68,0,9,9,0,0,0,0,17.68Z"/><path class="cls-1" d="M448.1,76.94a9,9,0,0,0-17.68,0,9,9,0,0,0,0,17.68,9,9,0,0,0,17.68,0,9,9,0,0,0,0-17.68Z"/><path class="cls-1" d="M440.92,219.33a9,9,0,0,0-17.68,0,9,9,0,0,0,0,17.68,9,9,0,0,0,17.68,0,9,9,0,0,0,0-17.68Z"/><path class="cls-1" d="M447.05,384.74a38.55,38.55,0,1,0-47.54,37.47v39.67h-47.7V320.33a19,19,0,0,0-19-19H308.56a9,9,0,0,0,0,18h24.25a1,1,0,0,1,1,1V461.88H281.07V213.08a19,19,0,0,0-19-19H101.71a19,19,0,0,0-19,19v248.8H65.57a9,9,0,1,0,0,18H91.7l180.36.12h0a9.6,9.6,0,0,0,1.42-.12H434.65a9,9,0,0,0,0-18H417.51V422.21A38.6,38.6,0,0,0,447.05,384.74ZM100.71,213.08a1,1,0,0,1,1-1H262.07a1,1,0,0,1,1,1v248.8H213.13v-53a9,9,0,0,0-9-9H159.65a9,9,0,0,0-9,9v53H100.71Zm94.42,248.8H168.65v-44h26.48ZM388,384.74a20.55,20.55,0,1,1,20.55,20.54A20.57,20.57,0,0,1,388,384.74Z"/></svg>