<svg id="Layer_2" data-name="Layer 2" xmlns="http://www.w3.org/2000/svg" viewBox="0 0 512 512"><defs><style>.cls-1{fill:#fff;}</style></defs><path class="cls-1" d="M256,374.65c86.6,0,174.27-19.57,174.27-57V86.08s0,0,0,0c0-13.12-10.49-24.53-31.11-33.91C385.75,46,368.56,41,348.05,37.08a9,9,0,0,0-10.67,8.85V89a9,9,0,0,0,18,0V57c14.3,3.23,26.71,7.17,36.32,11.54,15.16,6.89,20.56,13.59,20.56,17.57v0a5.07,5.07,0,0,1,0,.55v.08a5.07,5.07,0,0,1-.09.54v0l0,.12c0,.16-.09.32-.14.48a5,5,0,0,1-.26.66l-.14.32-.11.21-.16.3-.16.28-.19.3-.16.25-.25.36-.14.19-.16.22c-.1.13-.2.25-.29.38a4.82,4.82,0,0,0-.36.43l-.35.4c-.32.35-.65.7-1.07,1.12-.27.26-.61.58-1.08,1l-.21.18c-.11.11-.24.21-.36.31l-.27.23,0,0c-.38.32-.77.62-1.17.93l-.14.11-1.11.81-.58.4c-.39.27-.79.53-1.19.79A87.47,87.47,0,0,1,388.48,105c-.87.37-1.75.73-2.63,1.07s-2,.77-3,1.16l-.18.06-2.15.78-.1,0-2.25.78L378,109l-.76.24-2.84.92-.6.19c-1.14.35-2.28.69-3.43,1-.88.26-1.77.51-2.68.76l-.1,0-2.73.74-2.5.65-.27.06-.15,0c-.81.21-1.62.4-2.5.61-1.93.47-4.05,1-6.75,1.54-.91.21-1.84.41-2.84.61-1.29.27-2.6.52-4,.79l-.87.17a7.78,7.78,0,0,0-.81.17c-25.94,4.9-56.31,7.53-88.15,7.53-32.8,0-64.05-2.79-90.49-8l-.32-.08-1.91-.38-2.06-.43c-1.26-.25-2.52-.53-3.87-.83l-1.82-.41-1.9-.45-1.73-.41-.12,0-.1,0c-1.19-.29-2.35-.57-3.48-.87l-1.43-.37-.9-.25-1.39-.38-.12,0-1.21-.34-.18,0-1.23-.35-.7-.21c-2.37-.69-4.62-1.39-6.77-2.11l-.49-.16-2.16-.75-.12,0Q128,106.9,125,105.65l-.27-.11c-2.65-1.09-5.09-2.18-7.3-3.27l-.1,0c-1-.52-2-1-3-1.55l-.46-.26c-.43-.23-.85-.47-1.26-.71l-.16-.09-.89-.53-.51-.31-1-.66c-.57-.38-1.13-.75-1.6-1.08l-.19-.13c-.42-.31-.85-.61-1.25-.92l-.87-.68-.67-.56c-.18-.15-.36-.3-.52-.46l-.13-.11a21.4,21.4,0,0,1-1.58-1.53l-.08-.08-.18-.2c-.1-.1-.19-.21-.28-.31-.25-.28-.49-.57-.71-.86l-.14-.17-.14-.19-.28-.39c-.07-.09-.12-.18-.17-.25l-.25-.41a.75.75,0,0,1-.07-.12,3.35,3.35,0,0,1-.2-.35,7.11,7.11,0,0,1-.48-1,1.34,1.34,0,0,1-.07-.18l-.06-.15,0-.13c0-.13-.08-.25-.11-.38s-.11-.54-.15-.85c0-.13,0-.26,0-.39v-.12c0-4,5.4-10.68,20.57-17.57,9.09-4.15,20.78-7.92,34.2-11.06V88.57a9,9,0,0,0,18,0V46.33a9,9,0,0,0-10.73-8.84c-19.59,3.85-36,8.78-48.93,14.64-20.56,9.34-31,20.71-31.11,33.8,0,0,0,.1,0,.15V317.69C81.73,355.08,169.4,374.65,256,374.65ZM384.51,125.77l.52-.17c1-.35,2-.69,2.93-1l.35-.12,1.7-.63c.55-.21,1.1-.41,1.65-.63,1.57-.6,3.15-1.24,4.62-1.88.88-.37,1.74-.75,2.59-1.13l.33-.16.26-.11,1.25-.59c.4-.18.79-.37,1.2-.57.6-.29,1.18-.57,1.74-.87s.85-.42,1.26-.65.91-.48,1.29-.69l1.25-.68a2.26,2.26,0,0,0,.26-.16.05.05,0,0,0,0,0l.33-.19c.25-.14.5-.28.74-.43,1-.58,1.9-1.13,2.77-1.69l.68-.45V317.69c0,6.52-13,16.86-41.92,25.27-30.42,8.83-71,13.69-114.35,13.69S172.07,351.79,141.65,343c-29-8.41-41.92-18.75-41.92-25.27V112.91l.48.32c.79.51,1.6,1,2.39,1.48l1,.61.36.21.48.27,1.79,1,.16.09h0c.87.47,1.77.93,2.64,1.35,1.43.73,2.87,1.41,4.29,2l.49.22.94.42,1.54.65c2.39,1,4.91,2,7.5,2.94l.12,0c1.16.42,2.33.83,3.53,1.24l.06,0,2.52.83.82.27.09,0,2.94.91.12,0c33,10,77.62,15.18,122,15.18C303.35,143.05,351,137.19,384.51,125.77Z"/><path class="cls-1" d="M452.56,340.31a9,9,0,0,0-9.29,15.43c11.2,6.73,17.36,13.84,17.36,20,0,10.49-16.74,22.57-44.79,32.29-31.65,11-75.62,18.36-123.82,20.81a9,9,0,0,0,.45,18l.46,0c92.44-4.69,185.7-28.49,185.7-71.07C478.63,362.65,469.86,350.73,452.56,340.31Z"/><path class="cls-1" d="M263.27,444c.06-.1.14-.19.2-.29s.21-.33.31-.5a2,2,0,0,0,.14-.25,5.2,5.2,0,0,0,.26-.53c0-.09.09-.17.12-.26s.14-.37.21-.56l.09-.27c.06-.2.11-.41.16-.62l.06-.23c.05-.27.09-.55.12-.83,0,0,0,0,0,0a8.89,8.89,0,0,0-.14-2.72.29.29,0,0,0,0-.09c-.05-.26-.12-.51-.19-.76l-.05-.12a6,6,0,0,0-.26-.71.36.36,0,0,0,0-.09,6.59,6.59,0,0,0-.34-.71h0a8.91,8.91,0,0,0-1.54-2.07L235,405a9,9,0,0,0-12.73,12.73l11.64,11.63c-10.44-.32-20.76-.86-30.84-1.63-44.17-3.36-84-11-112-21.58-24.84-9.33-39.67-20.71-39.67-30.44,0-6.16,6.16-13.27,17.36-20a9,9,0,0,0-9.29-15.43c-17.3,10.42-26.07,22.34-26.07,35.43,0,42.18,90.69,64.06,168.35,70,10.74.82,21.73,1.39,32.86,1.71l-12.29,12.29A9,9,0,0,0,235,472.44l27.34-27.34.13-.15c.16-.16.32-.33.46-.5Z"/><path class="cls-1" d="M151.9,299.76a9,9,0,0,0,6.37-2.64L191,264.43l27.29,27.29a9,9,0,0,0,12.73,0l58.84-58.85,63.91,63.91a9,9,0,0,0,12.73-12.73l-70.28-70.27a9,9,0,0,0-12.72,0l-58.85,58.85-27.28-27.29a9,9,0,0,0-12.73,0l-39.06,39a9,9,0,0,0,6.36,15.37Z"/><circle class="cls-1" cx="205.11" cy="198.04" r="14.94" transform="translate(-60.17 93.57) rotate(-22.5)"/></svg>