<svg id="Layer_2" data-name="Layer 2" xmlns="http://www.w3.org/2000/svg" viewBox="0 0 512 512"><defs><style>.cls-1{fill:#fff;}</style></defs><path class="cls-1" d="M480,71.2a39.05,39.05,0,0,0-39-39H71a39.05,39.05,0,0,0-39,39v61h0V401.44a39,39,0,0,0,39,39H173.84a9,9,0,0,0,0-18H71a21,21,0,0,1-21-21V141.2H462V284.35a9,9,0,0,0,18,0V132.2h0Zm-430,0a21,21,0,0,1,21-21H441a21,21,0,0,1,21,21v52H50Z"/><circle class="cls-1" cx="83.74" cy="86.7" r="9.7"/><path class="cls-1" d="M121.7,77a9.7,9.7,0,1,0,9.7,9.7A9.7,9.7,0,0,0,121.7,77Z"/><circle class="cls-1" cx="159.66" cy="86.7" r="9.7"/><path class="cls-1" d="M476.6,323.74l-142-112.93a9,9,0,0,0-11.21,0l-142,112.93a9,9,0,0,0,11.2,14.09l11.79-9.38V458.78a20.88,20.88,0,0,0,20.7,21H432.91a20.89,20.89,0,0,0,20.71-21V328.45l11.78,9.38a9,9,0,0,0,11.2-14.09ZM357.68,461.8H300.35V376.34h57.33Zm77.94-145.53V458.78a2.89,2.89,0,0,1-2.71,3H375.68V367.34a9,9,0,0,0-9-9H291.35a9,9,0,0,0-9,9V461.8H225.12a2.88,2.88,0,0,1-2.7-3V316.27a9.06,9.06,0,0,0-.22-2L329,229.36l106.81,84.95A9.05,9.05,0,0,0,435.62,316.27Z"/><path class="cls-1" d="M268.15,190.8a9,9,0,0,0-9-9H157a9,9,0,1,0,0,18H259.15A9,9,0,0,0,268.15,190.8Z"/><path class="cls-1" d="M97.44,199.8h27.27a9,9,0,1,0,0-18H97.44a9,9,0,0,0,0,18Z"/><path class="cls-1" d="M184.24,260.48H197.5a9,9,0,0,0,0-18H184.24a9,9,0,1,0,0,18Z"/><path class="cls-1" d="M161,251.48a9,9,0,0,0-9-9H97.44a9,9,0,1,0,0,18H152A9,9,0,0,0,161,251.48Z"/><path class="cls-1" d="M134.78,303.16H97.44a9,9,0,0,0,0,18h37.34a9,9,0,1,0,0-18Z"/><path class="cls-1" d="M134.78,363.84H97.44a9,9,0,0,0,0,18h37.34a9,9,0,1,0,0-18Z"/></svg>