<svg id="Layer_2" data-name="Layer 2" xmlns="http://www.w3.org/2000/svg" viewBox="0 0 512 512"><defs><style>.cls-1{fill:#fff;}</style></defs><path class="cls-1" d="M406,426.31H106a45.08,45.08,0,0,1-45-45V143.14a45.08,45.08,0,0,1,45-45h64.56a9,9,0,0,1,0,18H106a27.06,27.06,0,0,0-27,27V381.28a27.06,27.06,0,0,0,27,27H406a27.06,27.06,0,0,0,27-27V143.14a27.06,27.06,0,0,0-27-27H341.46a9,9,0,0,1,0-18H406a45.08,45.08,0,0,1,45,45V381.28A45.08,45.08,0,0,1,406,426.31Z"/><path class="cls-1" d="M323.86,480H188.13a9,9,0,0,1,0-18H323.86a9,9,0,0,1,0,18Z"/><path class="cls-1" d="M206.64,480a8.67,8.67,0,0,1-2-.23A9,9,0,0,1,197.86,469l12.26-53.69a9,9,0,0,1,17.55,4L215.4,473A9,9,0,0,1,206.64,480Z"/><path class="cls-1" d="M305.36,480a9,9,0,0,1-8.77-7l-12.26-53.69a9,9,0,0,1,17.55-4L314.14,469a9,9,0,0,1-6.77,10.77A8.67,8.67,0,0,1,305.36,480Z"/><path class="cls-1" d="M347.47,241.14H164.53a21.52,21.52,0,0,1-18.85-31.9l91.47-166.1a21.52,21.52,0,0,1,37.7,0l91.47,166.1a21.52,21.52,0,0,1-18.85,31.9ZM256,50a3.4,3.4,0,0,0-3.08,1.82l-91.47,166.1a3.52,3.52,0,0,0,3.08,5.22H347.47a3.52,3.52,0,0,0,3.08-5.22L259.08,51.82A3.4,3.4,0,0,0,256,50Z"/><path class="cls-1" d="M256,166.64a9,9,0,0,1-9-9V105.79a9,9,0,0,1,18,0v51.85A9,9,0,0,1,256,166.64Z"/><path class="cls-1" d="M256,203a9.46,9.46,0,0,1-1.76-.17,9.07,9.07,0,0,1-1.68-.52,8.91,8.91,0,0,1-1.56-.82,9.21,9.21,0,0,1-1.36-1.12,9.12,9.12,0,0,1-1.95-2.92,9.17,9.17,0,0,1-.52-1.69,9.2,9.2,0,0,1,0-3.52,9.07,9.07,0,0,1,.52-1.68,8.57,8.57,0,0,1,.83-1.55,7.79,7.79,0,0,1,1.12-1.37,8.62,8.62,0,0,1,1.36-1.12,9.69,9.69,0,0,1,1.56-.83,9.86,9.86,0,0,1,1.68-.51,9.06,9.06,0,0,1,3.52,0,9.86,9.86,0,0,1,1.68.51,9.59,9.59,0,0,1,1.55.83,8.86,8.86,0,0,1,2.49,2.49,9.24,9.24,0,0,1,.83,1.55,9,9,0,0,1,.51,1.68,8.69,8.69,0,0,1,0,3.52,9.13,9.13,0,0,1-.51,1.69,9.12,9.12,0,0,1-1.95,2.92,8.88,8.88,0,0,1-2.92,1.94,9.07,9.07,0,0,1-1.68.52A9.46,9.46,0,0,1,256,203Z"/><path class="cls-1" d="M134.07,334.72a10,10,0,0,1-10-10v0a10,10,0,1,1,10,10Z"/><path class="cls-1" d="M182.84,334.72a10,10,0,0,1-10-10v0a10,10,0,1,1,10,10Z"/><path class="cls-1" d="M231.61,334.72a10,10,0,0,1-10-10v0a10,10,0,1,1,10,10Z"/><path class="cls-1" d="M280.38,334.72a10,10,0,0,1-10-10v0a10,10,0,1,1,10,10Z"/><path class="cls-1" d="M329.15,334.72a10,10,0,0,1-10-10v0a10,10,0,1,1,10,10Z"/><path class="cls-1" d="M377.92,334.72a10,10,0,0,1-10-10v0a10,10,0,1,1,10,10Z"/><path class="cls-1" d="M134.07,374.31a10,10,0,0,1-10-10v0a10,10,0,1,1,10,10Z"/><path class="cls-1" d="M182.84,374.31a10,10,0,0,1-10-10v0a10,10,0,1,1,10,10Z"/><path class="cls-1" d="M280.38,374.31a10,10,0,0,1-10-10v0a10,10,0,1,1,10,10Z"/><path class="cls-1" d="M329.15,374.31a10,10,0,0,1-10-10v0a10,10,0,1,1,10,10Z"/><path class="cls-1" d="M182.84,295.14a10,10,0,0,1-10-10v0a10,10,0,1,1,10,10Z"/><path class="cls-1" d="M231.61,295.14a10,10,0,0,1-10-10v0a10,10,0,1,1,10,10Z"/><path class="cls-1" d="M280.38,295.14a10,10,0,0,1-10-10v0a10,10,0,1,1,10,10Z"/><path class="cls-1" d="M377.92,295.14a10,10,0,0,1-10-10v0a10,10,0,1,1,10,10Z"/></svg>