<svg id="Layer_2" data-name="Layer 2" xmlns="http://www.w3.org/2000/svg" viewBox="0 0 512 512"><defs><style>.cls-1{fill:#fff;}</style></defs><path class="cls-1" d="M182.69,471.66a9,9,0,0,1-4.5-1.2l-137-79.13a9,9,0,0,1-4.5-7.8V225.28a9,9,0,0,1,13.5-7.79l137.05,79.13a9,9,0,0,1,4.5,7.79V462.66a9,9,0,0,1-9,9Zm-128-93.33,119.05,68.74V309.61l-119-68.74Z"/><path class="cls-1" d="M251.2,273.86a9,9,0,1,1,4.27-1.08h0A8.94,8.94,0,0,1,251.2,273.86Z"/><path class="cls-1" d="M251.2,273.85a8.93,8.93,0,0,1-3.93-.91h0a9,9,0,1,1,3.95.92Z"/><path class="cls-1" d="M182.69,313.41a9.06,9.06,0,0,1-4.5-1.2l-137-79.13a9,9,0,0,1,0-15.59l137.05-79.13a9,9,0,0,1,9,0l67.09,38.74a9,9,0,0,1,.15,15.5l-54,32.53,55.28,31.92a9,9,0,0,1,4.5,7.79v0a9,9,0,0,1-4.5,7.8l-68.5,39.55A9,9,0,0,1,182.69,313.41Zm-119-88.13L182.69,294l50.52-29.17-55-31.77a9,9,0,0,1-.14-15.5l54-32.53-49.38-28.51Z"/><path class="cls-1" d="M251.19,273.84a9,9,0,0,1-9-8.84l-1.41-79.95a9,9,0,0,1,18-.32l1.41,80a9,9,0,0,1-8.84,9.16Z"/><path class="cls-1" d="M182.7,471.66a9,9,0,0,1-4.51-16.79l132.55-76.54V320l-55,31.76a9,9,0,0,1-13.5-7.79V280.43l-55,31.78a9,9,0,0,1-9-15.59l68.5-39.55a9,9,0,0,1,13.5,7.63l0,1.68v62l55-31.76a9,9,0,0,1,13.5,7.79v79.12a9,9,0,0,1-4.5,7.8l-137,79.13A9,9,0,0,1,182.7,471.66Z"/><path class="cls-1" d="M319.74,313.41a9,9,0,0,1-4.35-1.12l-68.52-37.87a9,9,0,0,1,8.71-15.76l68.52,37.87a9,9,0,0,1-4.36,16.88Z"/><path class="cls-1" d="M416.54,211.5a9.2,9.2,0,0,1-1-.06l-82.83-9.71a9,9,0,0,1-7.22-5.37l-33-76.58a9,9,0,0,1,1.05-8.94L343.31,44a9,9,0,0,1,8.26-3.56l82.83,9.7a9,9,0,0,1,7.21,5.38l33,76.58a9,9,0,0,1-1,8.94l-49.82,66.87A9,9,0,0,1,416.54,211.5Zm-76.61-27,72.5,8.49L456,134.41l-28.9-67-72.5-8.5L311,117.42Z"/><path class="cls-1" d="M416.55,211.5a9,9,0,0,1-8.27-5.44l-33.81-78.44A9,9,0,0,1,391,120.49l33.81,78.45a9,9,0,0,1-8.26,12.56Z"/><path class="cls-1" d="M382.73,133.06c-.28,0-.57,0-.85,0l-82-7.85a9,9,0,1,1,1.72-17.91l77.1,7.37,47.58-61.12a9,9,0,0,1,14.2,11.06l-50.62,65A9,9,0,0,1,382.73,133.06Z"/></svg>