<svg id="Layer_2" data-name="Layer 2" xmlns="http://www.w3.org/2000/svg" viewBox="0 0 512 512"><defs><style>.cls-1{fill:#2f4f4e;}</style></defs><path class="cls-1" d="M406,426.81H106a45.59,45.59,0,0,1-45.54-45.53V143.14A45.58,45.58,0,0,1,106,97.61h64.54a9.5,9.5,0,0,1,0,19H106a26.57,26.57,0,0,0-26.54,26.53V381.28A26.57,26.57,0,0,0,106,407.81H406a26.56,26.56,0,0,0,26.52-26.53V143.14A26.56,26.56,0,0,0,406,116.61H341.45a9.5,9.5,0,0,1,0-19H406a45.57,45.57,0,0,1,45.52,45.53V381.28A45.58,45.58,0,0,1,406,426.81Z"/><path class="cls-1" d="M323.86,480.5H188.13a9.5,9.5,0,0,1,0-19H323.86a9.5,9.5,0,0,1,0,19Z"/><path class="cls-1" d="M206.64,480.5a9.64,9.64,0,0,1-2.12-.24,9.5,9.5,0,0,1-7.15-11.38l12.26-53.69a9.5,9.5,0,0,1,18.53,4.23l-12.27,53.7A9.5,9.5,0,0,1,206.64,480.5Z"/><path class="cls-1" d="M305.36,480.5a9.5,9.5,0,0,1-9.25-7.38l-12.27-53.7a9.5,9.5,0,0,1,18.53-4.23l12.26,53.69a9.5,9.5,0,0,1-7.15,11.38A9.64,9.64,0,0,1,305.36,480.5Z"/><path class="cls-1" d="M347.47,241.64H164.53A22,22,0,0,1,145.24,209L236.71,42.9a22,22,0,0,1,38.58,0L366.76,209a22,22,0,0,1-19.29,32.64ZM256,50.5a2.92,2.92,0,0,0-2.65,1.56l-91.47,166.1a3,3,0,0,0,2.65,4.48H347.47a3,3,0,0,0,2.64-4.48L258.65,52.06A2.92,2.92,0,0,0,256,50.5Z"/><path class="cls-1" d="M256,167.14a9.5,9.5,0,0,1-9.5-9.5V105.79a9.5,9.5,0,0,1,19,0v51.85A9.5,9.5,0,0,1,256,167.14Z"/><path class="cls-1" d="M256,203.54a9.69,9.69,0,0,1-1.86-.18,10.44,10.44,0,0,1-1.78-.55,9.55,9.55,0,0,1-1.64-.87,9,9,0,0,1-1.44-1.18,9.5,9.5,0,0,1,0-13.43,9,9,0,0,1,1.44-1.18,9.42,9.42,0,0,1,3.42-1.42,9.45,9.45,0,0,1,5.49.54,8.9,8.9,0,0,1,1.64.88,9.12,9.12,0,0,1,1.45,1.18A9.53,9.53,0,0,1,265.5,194a9,9,0,0,1-.19,1.86,9.36,9.36,0,0,1-.54,1.78,9.37,9.37,0,0,1-2,3.08,9.12,9.12,0,0,1-1.45,1.18,8.86,8.86,0,0,1-1.64.87,10.07,10.07,0,0,1-1.77.55A9.77,9.77,0,0,1,256,203.54Z"/><path class="cls-1" d="M134.07,335.22a10.5,10.5,0,0,1-10.5-10.49v0a10.5,10.5,0,1,1,10.5,10.51Z"/><path class="cls-1" d="M182.84,335.22a10.5,10.5,0,0,1-10.5-10.49v0a10.5,10.5,0,1,1,10.5,10.51Z"/><path class="cls-1" d="M231.61,335.22a10.5,10.5,0,0,1-10.5-10.49v0a10.5,10.5,0,1,1,10.5,10.51Z"/><path class="cls-1" d="M280.38,335.22a10.5,10.5,0,0,1-10.5-10.49v0a10.5,10.5,0,1,1,10.5,10.51Z"/><path class="cls-1" d="M329.15,335.22a10.5,10.5,0,0,1-10.5-10.49v0a10.5,10.5,0,1,1,10.5,10.51Z"/><path class="cls-1" d="M377.92,335.22a10.49,10.49,0,0,1-10.5-10.49v0a10.5,10.5,0,1,1,10.5,10.51Z"/><path class="cls-1" d="M134.07,374.81a10.5,10.5,0,0,1-10.5-10.49v0a10.5,10.5,0,1,1,10.5,10.51Z"/><path class="cls-1" d="M182.84,374.81a10.5,10.5,0,0,1-10.5-10.49v0a10.5,10.5,0,1,1,10.5,10.51Z"/><path class="cls-1" d="M280.38,374.81a10.5,10.5,0,0,1-10.5-10.49v0a10.5,10.5,0,1,1,10.5,10.51Z"/><path class="cls-1" d="M329.15,374.81a10.5,10.5,0,0,1-10.5-10.49v0a10.5,10.5,0,1,1,10.5,10.51Z"/><path class="cls-1" d="M182.84,295.64a10.5,10.5,0,0,1-10.5-10.49v0a10.5,10.5,0,1,1,10.5,10.51Z"/><path class="cls-1" d="M231.61,295.64a10.5,10.5,0,0,1-10.5-10.49v0a10.5,10.5,0,1,1,10.5,10.51Z"/><path class="cls-1" d="M280.38,295.64a10.5,10.5,0,0,1-10.5-10.49v0a10.5,10.5,0,1,1,10.5,10.51Z"/><path class="cls-1" d="M377.92,295.64a10.49,10.49,0,0,1-10.5-10.49v0a10.5,10.5,0,1,1,10.5,10.51Z"/></svg>