<svg id="Layer_2" data-name="Layer 2" xmlns="http://www.w3.org/2000/svg" viewBox="0 0 512 512"><defs><style>.cls-1{fill:#2f4f4e;}</style></defs><path class="cls-1" d="M182.69,472.16a9.48,9.48,0,0,1-4.75-1.27l-137-79.13a9.51,9.51,0,0,1-4.75-8.23V225.28a9.5,9.5,0,0,1,14.25-8.23l137.05,79.13a9.51,9.51,0,0,1,4.75,8.23V462.66a9.49,9.49,0,0,1-9.5,9.5ZM55.14,378.05l118.05,68.16V309.9l-118-68.16Z"/><path class="cls-1" d="M251.2,274.36a9.5,9.5,0,1,1,4.42-1.09h0A9.53,9.53,0,0,1,251.2,274.36Z"/><path class="cls-1" d="M251.2,274.35a9.54,9.54,0,0,1-4.07-.92h0a9.49,9.49,0,1,1,4.09.93Z"/><path class="cls-1" d="M182.69,313.91a9.48,9.48,0,0,1-4.75-1.27l-137-79.13a9.5,9.5,0,0,1,0-16.46l137.05-79.13a9.53,9.53,0,0,1,9.5,0l67.09,38.74a9.5,9.5,0,0,1,.15,16.37l-53.29,32.09,54.55,31.49a9.51,9.51,0,0,1,4.75,8.23v0a9.51,9.51,0,0,1-4.75,8.23l-68.5,39.55A9.48,9.48,0,0,1,182.69,313.91Zm-118-88.63,118.05,68.16,49.52-28.59-54.27-31.33a9.5,9.5,0,0,1-.15-16.37l53.29-32.09-48.39-27.94Z"/><path class="cls-1" d="M251.19,274.34a9.51,9.51,0,0,1-9.5-9.33l-1.41-79.95a9.51,9.51,0,0,1,9.33-9.67h.18a9.5,9.5,0,0,1,9.49,9.33l1.41,80a9.5,9.5,0,0,1-9.33,9.67Z"/><path class="cls-1" d="M182.7,472.16a9.5,9.5,0,0,1-4.76-17.73l132.3-76.38V320.87L256,352.2A9.5,9.5,0,0,1,241.72,344V281.3l-54.28,31.34a9.5,9.5,0,0,1-9.5-16.46l68.5-39.55a9.5,9.5,0,0,1,14.25,8.06l0,1.68v61.15L315,296.18a9.5,9.5,0,0,1,14.25,8.23v79.12a9.51,9.51,0,0,1-4.75,8.23l-137,79.13A9.47,9.47,0,0,1,182.7,472.16Z"/><path class="cls-1" d="M319.73,313.91a9.47,9.47,0,0,1-4.58-1.18l-68.52-37.87a9.5,9.5,0,1,1,9.19-16.63l68.52,37.87a9.5,9.5,0,0,1-4.61,17.81Z"/><path class="cls-1" d="M416.54,212a8.23,8.23,0,0,1-1.1-.07l-82.83-9.7a9.52,9.52,0,0,1-7.62-5.68L292,120a9.48,9.48,0,0,1,1.1-9.44l49.82-66.88a9.51,9.51,0,0,1,8.72-3.76l82.82,9.71a9.48,9.48,0,0,1,7.62,5.67l33,76.58A9.51,9.51,0,0,1,474,141.3l-49.81,66.87A9.5,9.5,0,0,1,416.54,212Zm-76.27-28,71.93,8.42,43.26-58.07L426.8,67.84l-71.93-8.43L311.6,117.49Z"/><path class="cls-1" d="M416.55,212a9.51,9.51,0,0,1-8.73-5.74L374,127.82a9.5,9.5,0,1,1,17.44-7.52l33.82,78.44A9.51,9.51,0,0,1,416.55,212Z"/><path class="cls-1" d="M382.73,133.56c-.3,0-.6,0-.9-.05l-82-7.84a9.5,9.5,0,1,1,1.8-18.91l76.83,7.34,47.41-60.89a9.5,9.5,0,0,1,15,11.67l-50.62,65A9.5,9.5,0,0,1,382.73,133.56Z"/></svg>