<svg width="17" height="18" viewBox="0 0 17 18" fill="none" xmlns="http://www.w3.org/2000/svg">
<path d="M10.1833 9.18813L16.681 2.692C16.7815 2.59174 16.8612 2.47268 16.9156 2.34162C16.97 2.21057 16.998 2.07008 16.9981 1.92819C16.9982 1.78629 16.9704 1.64577 16.9161 1.51464C16.8619 1.38351 16.7824 1.26434 16.6821 1.16394C16.5818 1.06353 16.4627 0.983862 16.3316 0.929471C16.2005 0.87508 16.06 0.847035 15.9181 0.846937C15.7762 0.846839 15.6356 0.87469 15.5044 0.9289C15.3733 0.98311 15.2541 1.06262 15.1537 1.16288L8.65595 7.65901L2.15612 1.16288C1.9533 0.960109 1.67821 0.846191 1.39137 0.846191C1.10454 0.846191 0.829449 0.960109 0.626626 1.16288C0.423802 1.36566 0.309857 1.64068 0.309857 1.92744C0.309857 2.21421 0.423802 2.48923 0.626626 2.692L7.12434 9.18813L0.626626 15.6864C0.525782 15.7868 0.445707 15.906 0.390972 16.0374C0.336236 16.1687 0.307913 16.3096 0.307619 16.4518C0.307326 16.5941 0.335067 16.7351 0.389259 16.8667C0.443451 16.9982 0.523033 17.1178 0.623461 17.2186C0.723889 17.3195 0.843197 17.3995 0.974571 17.4542C1.10595 17.509 1.24682 17.5373 1.38914 17.5376C1.53146 17.5379 1.67244 17.5101 1.80404 17.456C1.93564 17.4018 2.05528 17.3222 2.15612 17.2218L8.65384 10.7257L15.1537 17.2218C15.3565 17.4246 15.6316 17.5385 15.9184 17.5385C16.2052 17.5385 16.4803 17.4246 16.6832 17.2218C16.886 17.019 16.9999 16.744 16.9999 16.4572C16.9999 16.1705 16.886 15.8955 16.6832 15.6927L10.1833 9.18813Z" fill="#FF0000"/>
</svg>
