<svg width="13" height="15" viewBox="0 0 13 15" fill="none" xmlns="http://www.w3.org/2000/svg">
<path d="M6.05884 7.05881H6.94119V11.9118H6.05884V7.05881Z" fill="white"/>
<path d="M4.29395 7.05881H5.1763V11.9118H4.29395V7.05881Z" fill="white"/>
<path d="M7.82349 7.05881H8.70584V11.9118H7.82349V7.05881Z" fill="white"/>
<path d="M12.2352 1.76469H8.70583V1.32351C8.70583 0.59372 8.11212 -1.52588e-05 7.3823 -1.52588e-05H5.61759C4.88777 -1.52588e-05 4.29406 0.59372 4.29406 1.32351V1.76469H0.764648V4.41175H1.68371L2.495 13.7424C2.53003 14.4485 3.10862 15 3.81688 15H9.18297C9.89124 15 10.4698 14.4485 10.5049 13.7424L11.3162 4.41175H12.2352V1.76469ZM5.17641 1.32351C5.17641 1.08025 5.37433 0.882338 5.61759 0.882338H7.3823C7.62559 0.882338 7.82347 1.08025 7.82347 1.32351V1.76469H5.17641V1.32351ZM1.647 2.64704H11.3529V3.5294H1.647V2.64704ZM9.6238 13.6948C9.61391 13.9319 9.4203 14.1176 9.183 14.1176H3.81688C3.57959 14.1176 3.38597 13.9319 3.37609 13.6948C2.51291 3.76225 2.57194 4.4414 2.56935 4.41175H10.4305C10.4282 4.43837 10.4831 3.80678 9.6238 13.6948Z" fill="white"/>
</svg>
