<svg width="23" height="20" viewBox="0 0 23 20" fill="none" xmlns="http://www.w3.org/2000/svg">
<path d="M21.448 0.831055H6.717C6.62802 0.831055 6.54268 0.866403 6.47977 0.929321C6.41685 0.99224 6.3815 1.07757 6.3815 1.16655C6.3815 1.25553 6.41685 1.34087 6.47977 1.40379C6.54268 1.46671 6.62802 1.50206 6.717 1.50206H21.448C21.6556 1.50232 21.8546 1.5849 22.0014 1.73168C22.1482 1.87847 22.2307 2.07747 22.231 2.28505V2.59106H0.671V2.28505C0.671265 2.07747 0.753844 1.87847 0.900628 1.73168C1.04741 1.5849 1.24642 1.50232 1.454 1.50206H5.375C5.46398 1.50206 5.54932 1.46671 5.61223 1.40379C5.67515 1.34087 5.7105 1.25553 5.7105 1.16655C5.7105 1.07757 5.67515 0.99224 5.61223 0.929321C5.54932 0.866403 5.46398 0.831055 5.375 0.831055H1.454C1.06846 0.83132 0.69878 0.984593 0.426159 1.25721C0.153539 1.52983 0.000264887 1.89951 0 2.28505L0 15.3151C0.000264887 15.7006 0.153539 16.0703 0.426159 16.3429C0.69878 16.6155 1.06846 16.7688 1.454 16.7691H7.171L6.429 17.7921C6.33015 17.9281 6.27085 18.0889 6.25767 18.2566C6.24449 18.4243 6.27794 18.5923 6.35432 18.7422C6.43069 18.892 6.54703 19.0179 6.69045 19.1057C6.83387 19.1936 6.9988 19.2401 7.167 19.2401H15.736C15.9042 19.2401 16.0691 19.1936 16.2126 19.1057C16.356 19.0179 16.4723 18.892 16.5487 18.7422C16.6251 18.5923 16.6585 18.4243 16.6453 18.2566C16.6321 18.0889 16.5729 17.9281 16.474 17.7921L15.732 16.7691H21.449C21.834 16.768 22.2029 16.6144 22.4749 16.3418C22.7469 16.0693 22.8997 15.7001 22.9 15.3151V2.28505C22.8997 1.89986 22.7467 1.53048 22.4745 1.25792C22.2024 0.985356 21.8332 0.831849 21.448 0.831055ZM15.93 18.1871C15.9565 18.2234 15.9723 18.2663 15.9756 18.3112C15.979 18.356 15.9697 18.4008 15.9489 18.4407C15.9281 18.4805 15.8966 18.5137 15.8579 18.5366C15.8192 18.5595 15.7749 18.571 15.73 18.5701H7.166C7.12107 18.571 7.07676 18.5595 7.03807 18.5366C6.99938 18.5137 6.96785 18.4805 6.94705 18.4407C6.92625 18.4008 6.917 18.356 6.92035 18.3112C6.9237 18.2663 6.93951 18.2234 6.966 18.1871L8 16.7701H14.9L15.93 18.1871ZM21.448 16.0991H1.454C1.24624 16.0988 1.04709 16.0161 0.900275 15.8691C0.753462 15.7221 0.671 15.5228 0.671 15.3151V13.9371H18.131C18.22 13.9371 18.3053 13.9017 18.3682 13.8388C18.4312 13.7759 18.4665 13.6905 18.4665 13.6016C18.4665 13.5126 18.4312 13.4272 18.3682 13.3643C18.3053 13.3014 18.22 13.2661 18.131 13.2661H0.671V3.26606H22.231V13.2661H19.472C19.383 13.2661 19.2977 13.3014 19.2348 13.3643C19.1718 13.4272 19.1365 13.5126 19.1365 13.6016C19.1365 13.6905 19.1718 13.7759 19.2348 13.8388C19.2977 13.9017 19.383 13.9371 19.472 13.9371H22.23V15.3151C22.23 15.5226 22.1477 15.7217 22.0011 15.8687C21.8545 16.0157 21.6556 16.0985 21.448 16.0991Z" fill="#2F4F4E"/>
<path d="M17.5169 6.00505H19.9029C19.9919 6.00505 20.0772 5.9697 20.1401 5.90678C20.2031 5.84387 20.2384 5.75854 20.2384 5.66956C20.2384 5.58058 20.2031 5.49525 20.1401 5.43233C20.0772 5.36941 19.9919 5.33406 19.9029 5.33406H17.5169C17.4279 5.33406 17.3426 5.36941 17.2797 5.43233C17.2167 5.49525 17.1814 5.58058 17.1814 5.66956C17.1814 5.75854 17.2167 5.84387 17.2797 5.90678C17.3426 5.9697 17.4279 6.00505 17.5169 6.00505Z" fill="#2F4F4E"/>
<path d="M14.4171 7.73405H19.9041C19.993 7.73405 20.0784 7.69871 20.1413 7.63579C20.2042 7.57287 20.2395 7.48754 20.2395 7.39856C20.2395 7.30958 20.2042 7.22423 20.1413 7.16132C20.0784 7.0984 19.993 7.06305 19.9041 7.06305H14.4171C14.3281 7.06305 14.2427 7.0984 14.1798 7.16132C14.1169 7.22423 14.0815 7.30958 14.0815 7.39856C14.0815 7.48754 14.1169 7.57287 14.1798 7.63579C14.2427 7.69871 14.3281 7.73405 14.4171 7.73405Z" fill="#2F4F4E"/>
<path d="M20.24 9.12805C20.24 9.0392 20.2047 8.954 20.1419 8.89117C20.0791 8.82835 19.9939 8.79306 19.905 8.79306H14.418C14.329 8.79306 14.2437 8.82841 14.1808 8.89133C14.1179 8.95425 14.0825 9.03958 14.0825 9.12856C14.0825 9.21754 14.1179 9.30287 14.1808 9.36578C14.2437 9.4287 14.329 9.46405 14.418 9.46405H19.905C19.9491 9.46405 19.9927 9.45536 20.0334 9.43846C20.0742 9.42156 20.1111 9.3968 20.1422 9.36559C20.1734 9.33437 20.198 9.29732 20.2148 9.25656C20.2316 9.2158 20.2402 9.17213 20.24 9.12805Z" fill="#2F4F4E"/>
<path d="M16.8611 10.522H14.4151C14.3261 10.522 14.2408 10.5574 14.1779 10.6203C14.1149 10.6832 14.0796 10.7686 14.0796 10.8576C14.0796 10.9465 14.1149 11.0319 14.1779 11.0948C14.2408 11.1577 14.3261 11.1931 14.4151 11.1931H16.8611C16.9501 11.1931 17.0354 11.1577 17.0983 11.0948C17.1612 11.0319 17.1966 10.9465 17.1966 10.8576C17.1966 10.7686 17.1612 10.6832 17.0983 10.6203C17.0354 10.5574 16.9501 10.522 16.8611 10.522Z" fill="#2F4F4E"/>
<path d="M5.37491 10.9851H4.7039C4.61492 10.9851 4.52959 11.0204 4.46667 11.0833C4.40376 11.1462 4.36841 11.2316 4.36841 11.3206C4.36841 11.4095 4.40376 11.4949 4.46667 11.5578C4.52959 11.6207 4.61492 11.656 4.7039 11.656H5.37491C5.46389 11.656 5.54922 11.6207 5.61214 11.5578C5.67506 11.4949 5.7104 11.4095 5.7104 11.3206C5.7104 11.2316 5.67506 11.1462 5.61214 11.0833C5.54922 11.0204 5.46389 10.9851 5.37491 10.9851Z" fill="#2F4F4E"/>
<path d="M7.42593 10.9851H6.75494C6.66596 10.9851 6.58062 11.0204 6.5177 11.0833C6.45478 11.1462 6.41943 11.2316 6.41943 11.3206C6.41943 11.4095 6.45478 11.4949 6.5177 11.5578C6.58062 11.6207 6.66596 11.656 6.75494 11.656H7.42593C7.51491 11.656 7.60026 11.6207 7.66318 11.5578C7.7261 11.4949 7.76144 11.4095 7.76144 11.3206C7.76144 11.2316 7.7261 11.1462 7.66318 11.0833C7.60026 11.0204 7.51491 10.9851 7.42593 10.9851Z" fill="#2F4F4E"/>
<path d="M9.47891 10.9851H8.80792C8.71894 10.9851 8.6336 11.0204 8.57068 11.0833C8.50776 11.1462 8.47241 11.2316 8.47241 11.3206C8.47241 11.4095 8.50776 11.4949 8.57068 11.5578C8.6336 11.6207 8.71894 11.656 8.80792 11.656H9.47891C9.56789 11.656 9.65324 11.6207 9.71616 11.5578C9.77907 11.4949 9.81442 11.4095 9.81442 11.3206C9.81442 11.2316 9.77907 11.1462 9.71616 11.0833C9.65324 11.0204 9.56789 10.9851 9.47891 10.9851Z" fill="#2F4F4E"/>
<path d="M11.393 6.82105C11.3301 6.75819 11.2449 6.72289 11.156 6.72289C11.0671 6.72289 10.9818 6.75819 10.919 6.82105C10.8561 6.88391 10.8208 6.96916 10.8208 7.05805C10.8208 7.14694 10.8561 7.23219 10.919 7.29505L11.47 7.84606L10.919 8.39705C10.8632 8.46125 10.8339 8.5442 10.8369 8.62917C10.8399 8.71414 10.875 8.79482 10.9351 8.85494C10.9952 8.91506 11.0759 8.95015 11.1609 8.95314C11.2458 8.95613 11.3288 8.9268 11.393 8.87105L12.181 8.08306C12.2121 8.05195 12.2368 8.015 12.2537 7.97434C12.2705 7.93367 12.2792 7.89008 12.2792 7.84606C12.2792 7.80204 12.2705 7.75844 12.2537 7.71778C12.2368 7.67711 12.2121 7.64017 12.181 7.60906L11.393 6.82105Z" fill="#2F4F4E"/>
<path d="M3.26705 6.82106C3.20409 6.7584 3.11888 6.72323 3.03005 6.72323C2.94123 6.72323 2.85602 6.7584 2.79305 6.82106L2.00505 7.60905C1.9424 7.67201 1.90723 7.75723 1.90723 7.84605C1.90723 7.93488 1.9424 8.02009 2.00505 8.08305L2.79305 8.87106C2.82329 8.90588 2.86037 8.93409 2.90198 8.95396C2.9436 8.97383 2.98885 8.98493 3.03494 8.98655C3.08102 8.98818 3.12695 8.98029 3.16986 8.96339C3.21276 8.9465 3.25174 8.92096 3.28434 8.88835C3.31695 8.85574 3.3425 8.81677 3.35939 8.77386C3.37629 8.73095 3.38417 8.68503 3.38255 8.63894C3.38093 8.59286 3.36983 8.54759 3.34996 8.50598C3.33009 8.46436 3.30187 8.42729 3.26705 8.39706L2.71605 7.84605L3.26705 7.29506C3.32971 7.23209 3.36488 7.14688 3.36488 7.05806C3.36488 6.96923 3.32971 6.88402 3.26705 6.82106Z" fill="#2F4F4E"/>
<path d="M5.39301 9.78905H8.79301C9.01677 9.78879 9.23129 9.69978 9.38951 9.54155C9.54774 9.38333 9.63674 9.16882 9.637 8.94506V6.93206C9.6374 6.78393 9.6037 6.6377 9.53849 6.50469C9.47329 6.37168 9.37834 6.25547 9.261 6.16506L7.69001 4.94605C7.51967 4.81379 7.31016 4.74201 7.09451 4.74201C6.87886 4.74201 6.66934 4.81379 6.499 4.94605L4.928 6.16506C4.81067 6.25547 4.71572 6.37168 4.65052 6.50469C4.58531 6.6377 4.55161 6.78393 4.55201 6.93206V8.94706C4.55279 9.16995 4.64163 9.38351 4.79914 9.54122C4.95666 9.69892 5.17011 9.788 5.39301 9.78905ZM5.22 6.93006C5.22 6.88432 5.23045 6.83919 5.25055 6.79811C5.27066 6.75704 5.29989 6.72111 5.33601 6.69306L6.90701 5.47405C6.95964 5.43318 7.02437 5.411 7.09101 5.411C7.15764 5.411 7.22238 5.43318 7.27501 5.47405L8.846 6.69306C8.88212 6.72111 8.91136 6.75704 8.93146 6.79811C8.95157 6.83919 8.96202 6.88432 8.96201 6.93006V8.94506C8.96201 8.99094 8.94378 9.03494 8.91133 9.06739C8.87889 9.09983 8.83489 9.11805 8.789 9.11805H7.42601V8.00505C7.42601 7.91607 7.39066 7.83074 7.32774 7.76783C7.26482 7.70491 7.17949 7.66956 7.09051 7.66956C7.00153 7.66956 6.91619 7.70491 6.85328 7.76783C6.79036 7.83074 6.75501 7.91607 6.75501 8.00505V9.11805H5.39201C5.34613 9.11805 5.30212 9.09983 5.26968 9.06739C5.23724 9.03494 5.21901 8.99094 5.21901 8.94506L5.22 6.93006Z" fill="#2F4F4E"/>
</svg>
