<svg width="20" height="18" viewBox="0 0 20 18" fill="none" xmlns="http://www.w3.org/2000/svg">
<path d="M11.0438 8.55701V7.95701C11.0434 7.62012 10.922 7.29459 10.7018 7.03967C10.4815 6.78474 10.1771 6.61737 9.84382 6.56801V4.54801H11.4438C11.5499 4.54801 11.6516 4.50587 11.7267 4.43085C11.8017 4.35584 11.8438 4.2541 11.8438 4.14801V2.94801H12.6438C12.6963 2.94801 12.7484 2.93767 12.7969 2.91756C12.8454 2.89746 12.8895 2.868 12.9267 2.83086C12.9638 2.79371 12.9933 2.74961 13.0134 2.70108C13.0335 2.65255 13.0438 2.60054 13.0438 2.54801V1.33601H15.0488C15.1549 1.33601 15.2566 1.29387 15.3317 1.21886C15.4067 1.14384 15.4488 1.0421 15.4488 0.936012C15.4488 0.829926 15.4067 0.728182 15.3317 0.653168C15.2566 0.578153 15.1549 0.536011 15.0488 0.536011H0.615818C0.509731 0.536011 0.407992 0.578153 0.332977 0.653168C0.257963 0.728182 0.21582 0.829926 0.21582 0.936012C0.21582 1.0421 0.257963 1.14384 0.332977 1.21886C0.407992 1.29387 0.509731 1.33601 0.615818 1.33601H4.22582V2.53601C4.22582 2.6421 4.26796 2.74384 4.34298 2.81886C4.41799 2.89387 4.51973 2.93601 4.62582 2.93601H5.43282V4.13601C5.43282 4.2421 5.47496 4.34384 5.54998 4.41885C5.62499 4.49387 5.72673 4.53601 5.83282 4.53601H7.43282V6.55601C7.09957 6.60537 6.79512 6.77275 6.57488 7.02767C6.35464 7.2826 6.23326 7.60812 6.23282 7.94501V8.54501L11.0438 8.55701ZM5.02782 2.13601V1.33601H12.2468V2.13601H5.02782ZM6.22782 3.73601V2.93601H11.0408V3.73601H6.22782ZM9.03482 4.53601V6.54101H8.23482V4.54701L9.03482 4.53601ZM7.03282 7.95601C7.03282 7.79688 7.09604 7.64427 7.20856 7.53175C7.32108 7.41922 7.47369 7.35601 7.63282 7.35601H9.63782C9.79695 7.35601 9.94956 7.41922 10.0621 7.53175C10.1746 7.64427 10.2378 7.79688 10.2378 7.95601V8.55601H7.03282V7.95601Z" fill="#2F4F4E"/>
<path d="M16.2557 1.33601H16.6557C16.7618 1.33601 16.8636 1.29387 16.9386 1.21886C17.0136 1.14384 17.0557 1.0421 17.0557 0.936012C17.0557 0.829926 17.0136 0.728182 16.9386 0.653168C16.8636 0.578153 16.7618 0.536011 16.6557 0.536011H16.2557C16.1496 0.536011 16.0479 0.578153 15.9729 0.653168C15.8979 0.728182 15.8557 0.829926 15.8557 0.936012C15.8557 1.0421 15.8979 1.14384 15.9729 1.21886C16.0479 1.29387 16.1496 1.33601 16.2557 1.33601Z" fill="#2F4F4E"/>
<path d="M12.0649 8.55701H5.11087C4.6689 8.55833 4.2454 8.73449 3.93287 9.04702C3.62035 9.35954 3.44419 9.78303 3.44287 10.225L3.44287 15.845C3.44419 16.287 3.62035 16.7105 3.93287 17.023C4.2454 17.3355 4.6689 17.5117 5.11087 17.513H12.0649C12.5068 17.5117 12.9303 17.3355 13.2429 17.023C13.5554 16.7105 13.7316 16.287 13.7329 15.845V10.225C13.7337 10.0057 13.6911 9.78849 13.6075 9.58576C13.524 9.38303 13.4011 9.19883 13.2461 9.04379C13.091 8.88874 12.9069 8.76591 12.7041 8.68236C12.5014 8.59882 12.2841 8.55622 12.0649 8.55701V8.55701Z" stroke="#2F4F4E" stroke-width="0.7"/>
<path d="M17.4519 9.47401C17.3509 9.49544 17.2547 9.53508 17.1679 9.59101L14.5679 11.091V14.96L17.1859 16.46C17.2994 16.527 17.4253 16.5707 17.5559 16.5885C17.6866 16.6063 17.8195 16.5979 17.9469 16.5637C18.0743 16.5295 18.1936 16.4703 18.2978 16.3895C18.402 16.3087 18.4891 16.2079 18.5539 16.093C18.6405 15.9406 18.6863 15.7683 18.6869 15.593V10.44C18.686 10.2892 18.651 10.1406 18.5845 10.0052C18.518 9.86983 18.4218 9.75125 18.303 9.65834C18.1842 9.56542 18.046 9.50057 17.8986 9.46865C17.7512 9.43673 17.5985 9.43857 17.4519 9.47401V9.47401Z" stroke="#2F4F4E" stroke-width="0.7"/>
</svg>
