<svg width="17" height="20" viewBox="0 0 17 20" fill="none" xmlns="http://www.w3.org/2000/svg">
<path d="M10.3358 7.22504V6.71204C10.335 6.42464 10.2312 6.14707 10.0431 5.92979C9.85495 5.7125 9.59511 5.56995 9.31079 5.52804V3.80704H10.6778C10.7685 3.80704 10.8555 3.77101 10.9196 3.70687C10.9838 3.64273 11.0198 3.55574 11.0198 3.46503V2.44004H11.7038C11.7945 2.44004 11.8815 2.404 11.9456 2.33987C12.0098 2.27573 12.0458 2.18874 12.0458 2.09804V1.07304H13.7548C13.8455 1.07304 13.9325 1.03701 13.9966 0.97287C14.0608 0.908732 14.0968 0.821745 14.0968 0.731041C14.0968 0.640337 14.0608 0.553342 13.9966 0.489204C13.9325 0.425067 13.8455 0.389038 13.7548 0.389038H1.4548C1.36409 0.389038 1.2771 0.425067 1.21296 0.489204C1.14883 0.553342 1.11279 0.640337 1.11279 0.731041C1.11279 0.821745 1.14883 0.908732 1.21296 0.97287C1.2771 1.03701 1.36409 1.07304 1.4548 1.07304H4.52579V2.09804C4.52579 2.18874 4.56183 2.27573 4.62597 2.33987C4.6901 2.404 4.77709 2.44004 4.86779 2.44004H5.5518V3.46503C5.5518 3.55574 5.58782 3.64273 5.65196 3.70687C5.7161 3.77101 5.80309 3.80704 5.8938 3.80704H7.2608V5.52804C6.97648 5.56995 6.71664 5.7125 6.52853 5.92979C6.34043 6.14707 6.23655 6.42464 6.23579 6.71204V7.22504H10.3358ZM5.20879 1.75603V1.07204H11.3608V1.75603H5.20879ZM6.2338 3.12304V2.43904H10.3338V3.12304H6.2338ZM8.62679 3.80704V5.51604H7.94279V3.80704H8.62679ZM6.91779 6.71204C6.91779 6.57598 6.97184 6.4455 7.06805 6.34929C7.16425 6.25308 7.29474 6.19904 7.43079 6.19904H9.13979C9.27585 6.19904 9.40633 6.25308 9.50254 6.34929C9.59875 6.4455 9.65279 6.57598 9.65279 6.71204V7.22504H6.91779V6.71204Z" fill="#2F4F4E"/>
<path d="M14.7798 1.07304H15.1217C15.2124 1.07304 15.2994 1.03701 15.3636 0.97287C15.4277 0.908732 15.4637 0.821745 15.4637 0.731041C15.4637 0.640337 15.4277 0.553342 15.3636 0.489204C15.2994 0.425067 15.2124 0.389038 15.1217 0.389038H14.7798C14.6891 0.389038 14.602 0.425067 14.5379 0.489204C14.4738 0.553342 14.4377 0.640337 14.4377 0.731041C14.4377 0.821745 14.4738 0.908732 14.5379 0.97287C14.602 1.03701 14.6891 1.07304 14.7798 1.07304Z" fill="#2F4F4E"/>
<path d="M14.181 9.26705H12.564L11.671 7.91905C11.501 7.66875 11.2723 7.46383 11.005 7.32213C10.7376 7.18043 10.4396 7.10625 10.137 7.10605H6.43103C6.1288 7.1058 5.83107 7.17937 5.56373 7.32036C5.29639 7.46135 5.06753 7.66549 4.89703 7.91505L4.00403 9.26305H2.38503C2.141 9.26225 1.89923 9.3098 1.67367 9.40294C1.44811 9.49608 1.24324 9.63298 1.07087 9.80572C0.898494 9.97846 0.762044 10.1836 0.669389 10.4094C0.576735 10.6351 0.529711 10.877 0.531033 11.1211V17.6601C0.53024 17.9037 0.577655 18.1452 0.670546 18.3705C0.763438 18.5958 0.899972 18.8005 1.07229 18.9728C1.24461 19.1451 1.44931 19.2816 1.6746 19.3745C1.8999 19.4674 2.14134 19.5148 2.38503 19.5141H14.185C14.4281 19.5138 14.6686 19.4656 14.893 19.3722C15.1174 19.2789 15.3211 19.1422 15.4926 18.97C15.6641 18.7977 15.7999 18.5934 15.8923 18.3686C15.9847 18.1439 16.0318 17.9031 16.031 17.6601V11.1211C16.0318 10.8777 15.9845 10.6366 15.8919 10.4115C15.7993 10.1865 15.6631 9.98199 15.4912 9.80973C15.3193 9.63746 15.1151 9.50085 14.8902 9.40772C14.6654 9.31459 14.4244 9.26679 14.181 9.26705V9.26705ZM8.28103 17.9971C7.45609 17.9955 6.65014 17.7493 5.96511 17.2897C5.28007 16.83 4.74671 16.1776 4.43248 15.4148C4.11825 14.6521 4.03726 13.8133 4.19975 13.0045C4.36224 12.1957 4.76092 11.4533 5.34536 10.8711C5.9298 10.2889 6.67376 9.89304 7.48316 9.73365C8.29257 9.57426 9.13105 9.65847 9.8926 9.97562C10.6541 10.2928 11.3045 10.8286 11.7615 11.5154C12.2185 12.2022 12.4616 13.0091 12.46 13.834C12.4558 14.9393 12.0139 15.9978 11.2311 16.778C10.4483 17.5582 9.38826 17.9965 8.28303 17.9971H8.28103ZM13.943 11.8801H13.201C13.0552 11.8801 12.9153 11.8221 12.8121 11.719C12.709 11.6158 12.651 11.4759 12.651 11.3301C12.651 11.1842 12.709 11.0443 12.8121 10.9411C12.9153 10.838 13.0552 10.78 13.201 10.78H13.875C13.947 10.7766 14.0189 10.7873 14.0866 10.8117C14.1544 10.836 14.2167 10.8735 14.2699 10.922C14.3232 10.9705 14.3663 11.0291 14.3969 11.0943C14.4274 11.1595 14.4448 11.2301 14.448 11.3021C14.4539 11.3731 14.4455 11.4446 14.4232 11.5123C14.401 11.58 14.3655 11.6426 14.3187 11.6964C14.2719 11.7502 14.2148 11.794 14.1508 11.8254C14.0868 11.8568 14.0172 11.875 13.946 11.8791L13.943 11.8801Z" stroke="#2F4F4E" stroke-width="0.7"/>
<path d="M8.28308 11.508C7.82487 11.5098 7.37747 11.6474 6.99745 11.9035C6.61744 12.1595 6.32188 12.5225 6.14813 12.9465C5.97438 13.3705 5.93025 13.8364 6.02132 14.2855C6.11238 14.7346 6.33455 15.1466 6.65975 15.4694C6.98494 15.7922 7.39855 16.0114 7.84828 16.0991C8.29801 16.1869 8.76366 16.1393 9.18637 15.9625C9.60908 15.7856 9.96986 15.4874 10.2231 15.1055C10.4763 14.7236 10.6107 14.2753 10.6091 13.817C10.6036 13.2034 10.3562 12.6168 9.92069 12.1844C9.48519 11.7521 8.89672 11.5091 8.28308 11.508Z" stroke="#2F4F4E" stroke-width="0.7"/>
</svg>
