<svg width="9" height="6" viewBox="0 0 9 6" fill="none" xmlns="http://www.w3.org/2000/svg">
<path d="M4.1153 5.346L0.303303 1.535C0.243484 1.47784 0.195691 1.4093 0.162731 1.33341C0.129771 1.25752 0.112308 1.17581 0.111368 1.09308C0.110429 1.01035 0.126031 0.928259 0.157259 0.851641C0.188487 0.775022 0.23471 0.705418 0.293215 0.646914C0.35172 0.588409 0.421326 0.542186 0.497944 0.510958C0.574562 0.47973 0.656649 0.464127 0.739382 0.465067C0.822115 0.466007 0.903826 0.483468 0.979715 0.516428C1.0556 0.549388 1.12414 0.597181 1.1813 0.657L4.5553 4.031L7.9283 0.655001C7.98608 0.59735 8.05466 0.551644 8.1301 0.520494C8.20555 0.489345 8.28639 0.473359 8.36801 0.473452C8.44963 0.473544 8.53044 0.489715 8.60581 0.521036C8.68119 0.552358 8.74965 0.598219 8.8073 0.656C8.86495 0.713782 8.91066 0.782353 8.94181 0.857798C8.97296 0.933243 8.98894 1.01408 8.98885 1.09571C8.98876 1.17733 8.97259 1.25814 8.94127 1.33351C8.90995 1.40889 8.86408 1.47735 8.8063 1.535L4.9933 5.348C4.87685 5.46439 4.71895 5.52977 4.5543 5.52977C4.38966 5.52977 4.23175 5.46439 4.1153 5.348V5.346Z" fill="#00E38C"/>
</svg>
