<svg width="15" height="15" viewBox="0 0 15 15" fill="none" xmlns="http://www.w3.org/2000/svg">
<g clip-path="url(#clip0)">
<path d="M10.7812 14.9988H1.71879C0.770645 14.9988 0 14.2281 0 13.28V4.21753C0 3.26938 0.770645 2.49874 1.71879 2.49874H7.03125C7.29 2.49874 7.5 2.70874 7.5 2.96749C7.5 3.22624 7.29 3.43624 7.03125 3.43624H1.71879C1.28815 3.43624 0.9375 3.78688 0.9375 4.21753V13.28C0.9375 13.7106 1.28815 14.0613 1.71879 14.0613H10.7812C11.2119 14.0613 11.5625 13.7106 11.5625 13.28V7.96753C11.5625 7.70877 11.7725 7.49878 12.0313 7.49878C12.29 7.49878 12.5 7.7082 12.5 7.96753V13.28C12.5 14.2281 11.7294 14.9988 10.7812 14.9988Z" fill="white"/>
<path d="M5.48266 9.98499C5.35953 9.98499 5.23948 9.93624 5.15136 9.84755C5.04012 9.73688 4.99263 9.57747 5.0233 9.42435L5.46515 7.21438C5.48324 7.12317 5.52821 7.03997 5.59321 6.97497L12.0664 0.502531C12.7364 -0.167521 13.8264 -0.167521 14.4971 0.502531C14.8214 0.826857 15.0001 1.25818 15.0001 1.71755C15.0001 2.17692 14.8214 2.60813 14.4964 2.93257L8.02394 9.40569C7.95894 9.47127 7.87517 9.51567 7.78453 9.53375L5.57513 9.97561C5.54446 9.9819 5.51322 9.98499 5.48266 9.98499ZM7.69263 9.07438H7.69893H7.69263ZM6.35642 7.53756L6.08073 8.91875L7.46135 8.64248L13.8339 2.27007C13.9814 2.12187 14.0626 1.92629 14.0626 1.71755C14.0626 1.50881 13.9814 1.31312 13.8339 1.16503C13.5301 0.860617 13.0345 0.860617 12.7289 1.16503L6.35642 7.53756Z" fill="white"/>
<path d="M13.2812 3.95439C13.1613 3.95439 13.0412 3.90873 12.95 3.81683L11.1825 2.04872C10.9994 1.86562 10.9994 1.56876 11.1825 1.38565C11.3656 1.20255 11.6625 1.20255 11.8457 1.38565L13.6131 3.15376C13.7962 3.33687 13.7962 3.63373 13.6131 3.81683C13.5212 3.90816 13.4013 3.95439 13.2812 3.95439Z" fill="white"/>
</g>
<defs>
<clipPath id="clip0">
<rect width="15" height="15" fill="white"/>
</clipPath>
</defs>
</svg>
