<svg width="23" height="24" viewBox="0 0 23 24" fill="none" xmlns="http://www.w3.org/2000/svg">
<path d="M18.978 14.425L19.817 13.378L17.169 11.256V6.66599H13.44V8.266L11.449 6.67899L3.08398 13.379L3.92298 14.426L5.00598 13.558V22.058H3.50598V23.4H19.396V22.058H17.874V13.545L18.978 14.425ZM14.778 8.008H15.823V10.181L14.778 9.344V8.008ZM13.211 22.056H9.68998V16.015H13.216L13.211 22.056ZM16.527 22.056H14.558V14.669H8.34898V22.056H6.34898V12.482L11.449 8.395L16.529 12.466L16.527 22.056Z" fill="#2F4F4E"/>
<path d="M8.11294 5.1C7.39178 5.21347 6.6617 5.26033 5.93194 5.24C5.27911 5.1786 4.66916 4.88785 4.21037 4.41937C3.75159 3.95088 3.47367 3.33497 3.42594 2.681C3.38471 1.95289 3.41384 1.22251 3.51294 0.5C2.76243 0.604932 2.05605 0.917062 1.47316 1.40132C0.890265 1.88558 0.453952 2.52279 0.21324 3.24135C-0.0274726 3.95991 -0.0630478 4.73136 0.110511 5.46903C0.28407 6.2067 0.659886 6.88135 1.19574 7.41721C1.73159 7.95306 2.40625 8.32887 3.14391 8.50243C3.88158 8.67599 4.65303 8.64042 5.37159 8.3997C6.09015 8.15899 6.72736 7.72268 7.21162 7.13978C7.69588 6.55689 8.00801 5.85051 8.11294 5.1ZM1.34194 4.536C1.34283 4.1382 1.43033 3.74536 1.59836 3.38478C1.76638 3.0242 2.01091 2.70454 2.31494 2.448C2.23929 2.97116 2.28665 3.50475 2.45328 4.0064C2.61991 4.50804 2.90121 4.96393 3.27484 5.33785C3.64847 5.71177 4.10414 5.99343 4.60566 6.16045C5.10717 6.32747 5.64073 6.37525 6.16394 6.3C5.80286 6.72892 5.31855 7.03636 4.77675 7.18059C4.23495 7.32482 3.66189 7.29887 3.13534 7.10625C2.6088 6.91362 2.15427 6.56366 1.83344 6.10386C1.51261 5.64405 1.34101 5.09667 1.34194 4.536Z" fill="#2F4F4E"/>
<path d="M22.9018 1.938H21.4638V0.5H20.1218V1.938H18.6838V3.28H20.1218V4.718H21.4638V3.28H22.9018V1.938Z" fill="#2F4F4E"/>
<path d="M14.144 2.601H15.4861V3.943H14.144V2.601Z" fill="#2F4F4E"/>
<path d="M11.406 0.512001H12.748V1.854H11.406V0.512001Z" fill="#2F4F4E"/>
</svg>
