<svg width="23" height="24" viewBox="0 0 23 24" fill="none" xmlns="http://www.w3.org/2000/svg">
<path d="M11.451 13.859C11.336 13.859 0 13.755 0 10.042C0 8.94998 1.15 8.00098 3.326 7.29898C3.44456 7.26613 3.57123 7.28036 3.67954 7.33869C3.78786 7.39703 3.86945 7.49496 3.90727 7.61203C3.94508 7.7291 3.93621 7.85625 3.88249 7.96693C3.82877 8.07761 3.73437 8.16326 3.619 8.20598C1.654 8.84098 0.954 9.57498 0.954 10.042C0.954 11.816 7.068 12.905 11.454 12.905C15.221 12.905 21.954 11.949 21.954 10.042C21.954 9.44998 21.005 8.77798 19.417 8.24198C19.3098 8.19315 19.2244 8.10638 19.1774 7.99838C19.1304 7.89038 19.1249 7.76879 19.1622 7.65704C19.1994 7.54528 19.2767 7.45126 19.3792 7.39309C19.4816 7.33492 19.6019 7.31671 19.717 7.34198C22.352 8.22798 22.904 9.30198 22.904 10.042C22.9 13.755 11.565 13.859 11.451 13.859Z" fill="#2F4F4E"/>
<path d="M11.451 23.401C5.9 23.401 0 22.065 0 19.585V10.042C0 9.91547 0.0502552 9.79414 0.13971 9.70469C0.229165 9.61523 0.350492 9.56498 0.477 9.56498C0.603508 9.56498 0.724835 9.61523 0.81429 9.70469C0.903745 9.79414 0.954 9.91547 0.954 10.042V19.585C0.954 20.785 4.947 22.448 11.454 22.448C17.961 22.448 21.954 20.781 21.954 19.585V10.042C21.954 9.91547 22.0043 9.79414 22.0937 9.70469C22.1832 9.61523 22.3045 9.56498 22.431 9.56498C22.5575 9.56498 22.6788 9.61523 22.7683 9.70469C22.8577 9.79414 22.908 9.91547 22.908 10.042V19.585C22.9 22.065 17 23.401 11.451 23.401Z" fill="#2F4F4E"/>
<path d="M3.44496 22.343C3.35037 22.3431 3.2579 22.315 3.17929 22.2624C3.10067 22.2098 3.03947 22.1351 3.00346 22.0476C2.96744 21.9601 2.95825 21.8639 2.97703 21.7712C2.99582 21.6785 3.04174 21.5935 3.10896 21.527L6.42896 18.235C6.54569 18.116 6.68497 18.0215 6.83864 17.957C6.99231 17.8925 7.1573 17.8593 7.32396 17.8593C7.49062 17.8593 7.65561 17.8925 7.80928 17.957C7.96295 18.0215 8.10222 18.116 8.21896 18.235L10.119 20.05C10.1463 20.0822 10.1801 20.1083 10.2181 20.1266C10.2562 20.1448 10.2977 20.1549 10.34 20.156C10.3844 20.1537 10.4279 20.1425 10.4679 20.1231C10.5079 20.1036 10.5436 20.0764 10.573 20.043L13.386 17.122C13.4979 17.0009 13.6327 16.9032 13.7827 16.8346C13.9326 16.766 14.0946 16.7278 14.2594 16.7222C14.4242 16.7166 14.5885 16.7438 14.7427 16.8021C14.897 16.8604 15.0381 16.9487 15.158 17.062L19.876 21.222C19.9248 21.2628 19.9649 21.313 19.994 21.3696C20.0231 21.4262 20.0406 21.488 20.0455 21.5515C20.0503 21.6149 20.0424 21.6787 20.0222 21.7391C20.002 21.7994 19.97 21.8551 19.928 21.9029C19.8859 21.9507 19.8347 21.9895 19.7775 22.0172C19.7202 22.0449 19.6579 22.0609 19.5943 22.0642C19.5308 22.0674 19.4672 22.058 19.4074 22.0363C19.3476 22.0146 19.2927 21.9812 19.246 21.938L14.513 17.768C14.483 17.7383 14.4471 17.7154 14.4076 17.7005C14.3682 17.6857 14.326 17.6793 14.2839 17.6819C14.2418 17.6844 14.2008 17.6958 14.1634 17.7153C14.126 17.7348 14.0931 17.7619 14.067 17.795L11.258 20.707C11.1401 20.8308 10.9987 20.9299 10.8421 20.9986C10.6856 21.0673 10.5169 21.1041 10.346 21.107C10.1775 21.1132 10.0097 21.0826 9.85422 21.0174C9.69878 20.9521 9.55945 20.8537 9.44596 20.729L7.54596 18.914C7.51838 18.8817 7.48427 18.8557 7.44588 18.8376C7.40749 18.8195 7.3657 18.8097 7.32326 18.809C7.28082 18.8082 7.23871 18.8165 7.1997 18.8332C7.16069 18.8499 7.12567 18.8747 7.09696 18.906L3.78196 22.203C3.73771 22.2472 3.68516 22.2822 3.62732 22.3061C3.56949 22.3299 3.50752 22.3421 3.44496 22.342V22.343Z" fill="#2F4F4E"/>
<path d="M10.0189 17.677C9.73587 17.677 9.4592 17.5931 9.22387 17.4358C8.98854 17.2786 8.80513 17.0551 8.69682 16.7936C8.58851 16.5321 8.56017 16.2444 8.61539 15.9668C8.6706 15.6892 8.80689 15.4342 9.00702 15.2341C9.20715 15.034 9.46213 14.8977 9.73972 14.8425C10.0173 14.7873 10.305 14.8156 10.5665 14.9239C10.828 15.0322 11.0515 15.2156 11.2087 15.451C11.366 15.6863 11.4499 15.963 11.4499 16.246C11.4494 16.6253 11.2984 16.989 11.0302 17.2573C10.7619 17.5255 10.3983 17.6764 10.0189 17.677ZM10.0189 15.769C9.92455 15.769 9.83233 15.797 9.75388 15.8494C9.67544 15.9018 9.6143 15.9763 9.5782 16.0634C9.5421 16.1506 9.53265 16.2465 9.55106 16.339C9.56946 16.4316 9.61489 16.5166 9.6816 16.5833C9.74831 16.65 9.8333 16.6954 9.92583 16.7138C10.0184 16.7322 10.1143 16.7228 10.2014 16.6867C10.2886 16.6506 10.3631 16.5894 10.4155 16.511C10.4679 16.4325 10.4959 16.3403 10.4959 16.246C10.4959 16.1194 10.4457 15.9979 10.3562 15.9083C10.2668 15.8187 10.1455 15.7682 10.0189 15.768V15.769Z" fill="#2F4F4E"/>
<path d="M18.6081 13.045C18.4821 13.045 18.3612 12.9951 18.2719 12.9063C18.1825 12.8175 18.1319 12.697 18.1311 12.571V10.462C18.1311 10.3355 18.1814 10.2141 18.2708 10.1247C18.3603 10.0352 18.4816 9.98498 18.6081 9.98498C18.7346 9.98498 18.8559 10.0352 18.9454 10.1247C19.0348 10.2141 19.0851 10.3355 19.0851 10.462V12.571C19.0843 12.697 19.0337 12.8175 18.9443 12.9063C18.855 12.9951 18.7341 13.045 18.6081 13.045Z" fill="#2F4F4E"/>
<path d="M4.29389 13.048C4.16739 13.048 4.04606 12.9977 3.9566 12.9083C3.86715 12.8188 3.81689 12.6975 3.81689 12.571V10.739C3.81689 10.6125 3.86715 10.4911 3.9566 10.4017C4.04606 10.3122 4.16739 10.262 4.29389 10.262C4.4204 10.262 4.54173 10.3122 4.63118 10.4017C4.72064 10.4911 4.77089 10.6125 4.77089 10.739V12.571C4.77089 12.6975 4.72064 12.8188 4.63118 12.9083C4.54173 12.9977 4.4204 13.048 4.29389 13.048Z" fill="#2F4F4E"/>
<path d="M11.928 9.08798H10.496C10.2431 9.08771 10.0006 8.98712 9.8217 8.80826C9.64285 8.62941 9.54226 8.38691 9.54199 8.13398V4.31698C9.54226 4.06404 9.64285 3.82154 9.8217 3.64269C10.0006 3.46384 10.2431 3.36324 10.496 3.36298H12.404C12.5305 3.36298 12.6518 3.41323 12.7413 3.50269C12.8307 3.59214 12.881 3.71347 12.881 3.83998C12.881 3.96648 12.8307 4.08781 12.7413 4.17727C12.6518 4.26672 12.5305 4.31698 12.404 4.31698H10.496V5.74898H11.927C12.1799 5.74924 12.4224 5.84984 12.6013 6.02869C12.7801 6.20754 12.8807 6.45004 12.881 6.70298V8.13398C12.8807 8.38674 12.7803 8.62909 12.6016 8.80791C12.423 8.98673 12.1808 9.08745 11.928 9.08798ZM10.496 6.70298V8.13398H11.927V6.70298H10.496Z" fill="#2F4F4E"/>
<path d="M16.2219 9.08798H14.7899C14.537 9.08771 14.2945 8.98712 14.1157 8.80826C13.9368 8.62941 13.8362 8.38691 13.8359 8.13398V4.31698C13.8362 4.06404 13.9368 3.82154 14.1157 3.64269C14.2945 3.46384 14.537 3.36324 14.7899 3.36298H16.2209C16.4739 3.36324 16.7164 3.46384 16.8952 3.64269C17.0741 3.82154 17.1747 4.06404 17.1749 4.31698V8.13398C17.1747 8.38674 17.0742 8.62909 16.8956 8.80791C16.7169 8.98673 16.4747 9.08745 16.2219 9.08798ZM14.7909 8.13398H16.2219V4.31698H14.7899L14.7909 8.13398Z" fill="#2F4F4E"/>
<path d="M7.6331 9.08798H6.2021C6.07559 9.08798 5.95426 9.03772 5.86481 8.94827C5.77535 8.85881 5.7251 8.73749 5.7251 8.61098C5.7251 8.48447 5.77535 8.36314 5.86481 8.27369C5.95426 8.18423 6.07559 8.13398 6.2021 8.13398H7.6331V6.70198H6.2021C6.07559 6.70198 5.95426 6.65172 5.86481 6.56227C5.77535 6.47281 5.7251 6.35149 5.7251 6.22498C5.7251 6.09847 5.77535 5.97714 5.86481 5.88769C5.95426 5.79823 6.07559 5.74798 6.2021 5.74798H7.6331C7.88603 5.74824 8.12853 5.84884 8.30739 6.02769C8.48624 6.20654 8.58683 6.44904 8.5871 6.70198V8.13398C8.58683 8.38691 8.48624 8.62941 8.30739 8.80827C8.12853 8.98712 7.88603 9.08771 7.6331 9.08798Z" fill="#2F4F4E"/>
<path d="M7.6331 6.70298H6.2021C6.07559 6.70298 5.95426 6.65272 5.86481 6.56327C5.77535 6.47381 5.7251 6.35248 5.7251 6.22598C5.7251 6.09947 5.77535 5.97814 5.86481 5.88869C5.95426 5.79923 6.07559 5.74898 6.2021 5.74898H7.6331V4.31698H6.2021C6.07559 4.31698 5.95426 4.26672 5.86481 4.17727C5.77535 4.08781 5.7251 3.96648 5.7251 3.83998C5.7251 3.71347 5.77535 3.59214 5.86481 3.50269C5.95426 3.41323 6.07559 3.36298 6.2021 3.36298H7.6331C7.88603 3.36324 8.12853 3.46384 8.30739 3.64269C8.48624 3.82154 8.58683 4.06404 8.5871 4.31698V5.74898C8.58683 6.00191 8.48624 6.24441 8.30739 6.42326C8.12853 6.60212 7.88603 6.70271 7.6331 6.70298Z" fill="#2F4F4E"/>
<path d="M19.5621 3.36298C19.2791 3.36298 19.0024 3.27905 18.7671 3.12181C18.5318 2.96457 18.3483 2.74108 18.24 2.4796C18.1317 2.21812 18.1034 1.93039 18.1586 1.6528C18.2138 1.37522 18.3501 1.12024 18.5502 0.920107C18.7504 0.719978 19.0053 0.583689 19.2829 0.528473C19.5605 0.473258 19.8482 0.501597 20.1097 0.609906C20.3712 0.718215 20.5947 0.901629 20.7519 1.13696C20.9092 1.37228 20.9931 1.64895 20.9931 1.93198C20.9926 2.31134 20.8416 2.67501 20.5734 2.94326C20.3051 3.21151 19.9415 3.36245 19.5621 3.36298ZM19.5621 1.45498C19.4678 1.45498 19.3755 1.48295 19.2971 1.53537C19.2187 1.58778 19.1575 1.66228 19.1214 1.74944C19.0853 1.8366 19.0759 1.93251 19.0943 2.02504C19.1127 2.11756 19.1581 2.20256 19.2248 2.26927C19.2915 2.33598 19.3765 2.38141 19.469 2.39981C19.5616 2.41822 19.6575 2.40877 19.7446 2.37267C19.8318 2.33656 19.9063 2.27543 19.9587 2.19698C20.0111 2.11854 20.0391 2.02632 20.0391 1.93198C20.0391 1.80538 19.9889 1.68395 19.8995 1.59433C19.81 1.50472 19.6887 1.45424 19.5621 1.45398V1.45498Z" fill="#2F4F4E"/>
</svg>
